<svg xmlns="http://www.w3.org/2000/svg" width="37" height="58" viewBox="0 0 37 58">
    <defs>
        <linearGradient id="o09n11kaxa" x1="0%" x2="191.019%" y1="50.009%" y2="50.009%">
            <stop offset="0%" stop-color="#00CDFF"/>
            <stop offset="89%" stop-color="#1000FF"/>
        </linearGradient>
        <linearGradient id="4o722pnh4b" x1="-57.102%" x2="273.612%" y1="50%" y2="50%">
            <stop offset="17%" stop-color="#00CDFF"/>
            <stop offset="48%" stop-color="#1000FF"/>
        </linearGradient>
    </defs>
    <g fill="none" fill-rule="evenodd">
        <g fill-rule="nonzero">
            <g>
                <path fill="url(#o09n11kaxa)" d="M35.897 9.729c.357-.186.725-.347 1.103-.485V.04c-.365-.066-6.706-.036-7.667 0-2.221.1-4.425.44-6.571 1.013C8.978 4.642 0 16.291 0 31.001c0 7.89 1.75 15.818 6.586 21.36-.902-1.3-1.4-2.83-1.43-4.404 0-9.065 10.61-14.85 27.612-14.85H37V23.91c-.378-.137-.746-.3-1.103-.484-2.596-1.327-4.225-3.968-4.225-6.849 0-2.881 1.63-5.522 4.225-6.848z" transform="translate(-974 -975) translate(974 975)"/>
                <path fill="url(#4o722pnh4b)" d="M15.283 48.92c-.38-.136-.75-.296-1.109-.478-2.615-1.324-4.26-3.924-4.282-6.767.002-1.675.586-3.3 1.659-4.62-4.335 2.517-6.725 6.013-6.725 10.226.031 1.555.534 3.068 1.448 4.352-.189-.204-.362-.414-.543-.631.964 1.204 2.11 2.262 3.4 3.14l.648.435c1.712 1.314 3.555 2.46 5.504 3.423v-9.08z" transform="translate(-974 -975) translate(974 975)"/>
                <path fill="#000" d="M11.26 37.861c-3.645 2.505-5.63 5.844-5.63 9.897.03 1.567.5 3.09 1.352 4.383-.176-.205-.338-.424-.507-.636.898 1.215 1.969 2.281 3.174 3.163l.155.11c-4.075-11.22-.211-15.624 1.457-16.917z" opacity=".24" style="mix-blend-mode:color-burn" transform="translate(-974 -975) translate(974 975)"/>
            </g>
        </g>
    </g>
</svg>
