<svg xmlns="http://www.w3.org/2000/svg" width="64" height="64" viewBox="0 0 64 64">
    <defs>
        <filter id="1it5yr40ua">
            <feColorMatrix in="SourceGraphic" values="0 0 0 0 0.341176 0 0 0 0 0.400000 0 0 0 0 0.450980 0 0 0 1.000000 0"/>
        </filter>
    </defs>
    <g fill="none" fill-rule="evenodd">
        <g>
            <g filter="url(#1it5yr40ua)" transform="translate(-1397 -437) translate(1385 425)">
                <g fill="#000" fill-rule="nonzero">
                    <path d="M28.261 30.125h-4.19V19.948c0-1.934-.7-3.761-1.978-5.202 2.391-1.366 4.005-3.922 4.005-6.846 0-4.356-3.579-7.9-7.978-7.9-4.4 0-7.979 3.544-7.979 7.9 0 1.989.748 3.807 1.978 5.197-.678.387-3.246 1.976-3.876 5.433-.706-.293-1.48-.455-2.293-.455-3.28 0-5.95 2.643-5.95 5.892v26.108c0 1.035.848 1.875 1.894 1.875H12.17v8.3H7.978c-1.045 0-1.893.84-1.893 1.875 0 1.035.848 1.875 1.893 1.875h12.17c1.046 0 1.894-.84 1.894-1.875 0-1.036-.848-1.875-1.894-1.875h-4.191v-8.3h10.41v10.175c0 1.035.849 1.875 1.894 1.875h10.142c1.045 0 1.893-.84 1.893-1.875V42.042c0-6.581-5.377-11.917-12.035-11.917zM18.12 3.75c2.31 0 4.191 1.862 4.191 4.15 0 2.288-1.88 4.15-4.191 4.15s-4.191-1.862-4.191-4.15c0-2.288 1.88-4.15 4.19-4.15zM3.787 23.967c0-1.181.97-2.142 2.163-2.142 1.193 0 2.163.96 2.163 2.142v16.2H3.787v-16.2zM26.367 48.2H3.788v-4.283h22.58V48.2zM36.51 60.25h-6.354V42.042c0-1.036-.848-1.875-1.894-1.875h-16.36v-20.22c0-2.27 1.851-4.147 4.193-4.147 2.313 0 4.189 1.854 4.189 4.148V32c0 1.035.848 1.875 1.893 1.875h6.085c4.481 0 8.248 3.585 8.248 8.167V60.25z" transform="translate(12 12)"/>
                    <path d="M48 0c-8.822 0-16 7.178-16 16s7.178 16 16 16 16-7.178 16-16S56.822 0 48 0zm0 28.234c-6.746 0-12.234-5.488-12.234-12.234 0-6.746 5.488-12.234 12.234-12.234 6.746 0 12.234 5.488 12.234 12.234 0 6.746-5.488 12.234-12.234 12.234z" transform="translate(12 12)"/>
                    <path d="M53.885 14.14H49.86v-4.025c0-1.004-.815-1.819-1.82-1.819-1.003 0-1.818.815-1.818 1.819v5.844c0 1.004.815 1.819 1.819 1.819h5.844c1.004 0 1.819-.815 1.819-1.819s-.814-1.819-1.819-1.819z" transform="translate(12 12)"/>
                </g>
            </g>
        </g>
    </g>
</svg>
