<svg xmlns="http://www.w3.org/2000/svg" width="161" height="58" viewBox="0 0 161 58">
    <defs>
        <linearGradient id="55xjn1ey3a" x1="0%" x2="191.019%" y1="50.009%" y2="50.009%">
            <stop offset="0%" stop-color="#00CDFF"/>
            <stop offset="89%" stop-color="#1000FF"/>
        </linearGradient>
        <linearGradient id="fdovai8zwb" x1="-57.102%" x2="273.612%" y1="50%" y2="50%">
            <stop offset="17%" stop-color="#00CDFF"/>
            <stop offset="48%" stop-color="#1000FF"/>
        </linearGradient>
    </defs>
    <g fill="none" fill-rule="evenodd">
        <g fill-rule="nonzero">
            <g>
                <g>
                    <path fill="url(#55xjn1ey3a)" d="M35.897 9.729c.357-.186.725-.347 1.103-.485V.04c-.365-.066-6.706-.036-7.667 0-2.221.1-4.425.44-6.571 1.013C8.978 4.642 0 16.291 0 31.001c0 7.89 1.75 15.818 6.586 21.36-.902-1.3-1.4-2.83-1.43-4.404 0-9.065 10.61-14.85 27.612-14.85H37V23.91c-.378-.137-.746-.3-1.103-.484-2.596-1.327-4.225-3.968-4.225-6.849 0-2.881 1.63-5.522 4.225-6.848z" transform="translate(-974 -975) translate(974 975)"/>
                    <path fill="url(#fdovai8zwb)" d="M15.283 48.92c-.38-.136-.75-.296-1.109-.478-2.615-1.324-4.26-3.924-4.282-6.767.002-1.675.586-3.3 1.659-4.62-4.335 2.517-6.725 6.013-6.725 10.226.031 1.555.534 3.068 1.448 4.352-.189-.204-.362-.414-.543-.631.964 1.204 2.11 2.262 3.4 3.14l.648.435c1.712 1.314 3.555 2.46 5.504 3.423v-9.08z" transform="translate(-974 -975) translate(974 975)"/>
                    <path fill="#000" d="M11.26 37.861c-3.645 2.505-5.63 5.844-5.63 9.897.03 1.567.5 3.09 1.352 4.383-.176-.205-.338-.424-.507-.636.898 1.215 1.969 2.281 3.174 3.163l.155.11c-4.075-11.22-.211-15.624 1.457-16.917z" opacity=".24" style="mix-blend-mode:color-burn" transform="translate(-974 -975) translate(974 975)"/>
                </g>
                <g fill="#233E53">
                    <path d="M101.551 4.283V13.32c0 2.111-1.401 3.643-3.33 3.643-1.927 0-3.358-1.532-3.358-3.643V4.283h-3.39v9.037c-.032 1.804.625 3.553 1.84 4.896 1.26 1.36 3.043 2.127 4.906 2.111 1.168.013 2.318-.285 3.33-.864v1.1c-.01 2.006-1.654 3.627-3.679 3.629-1.336.008-2.566-.715-3.198-1.88l-2.992 1.652c1.56 2.8 4.84 4.196 7.965 3.392 3.126-.805 5.304-3.606 5.29-6.804V4.282h-3.384zM89.182.014h-3.388V1.48c-.009.071-.014.142-.014.213v16.95c0 .07.005.14.014.21v1.465h3.388V18.85c.01-.07.014-.138.014-.208V1.693c0-.07-.005-.14-.014-.21V.014zM32.59 4.383v9.023c0 2.016-1.454 3.557-3.388 3.557-2.16 0-3.155-1.849-3.155-3.557V4.383H22.66v9.023c0 3.934 2.806 6.912 6.542 6.912 1.202.011 2.384-.306 3.416-.915v.915h3.388V4.383h-3.417zM79.56 12.741c.745-.668 1.382-1.445 1.89-2.304.706-1.226 1.249-2.538 1.614-3.902.017-.059.03-.119.038-.179h-3.539c-.628 1.898-1.44 3.229-2.512 4.081-.184.15-.378.285-.582.406-.07.05-.15.089-.232.115-.491.275-1.023.469-1.576.576v-9.84c-.001-.097-.012-.194-.032-.289V.015h-3.39v20.303h3.384v-1.373c.02-.095.03-.192.032-.288v-3.744c.667-.086 1.323-.24 1.957-.461l4.361 5.87h4.19l-5.603-7.58zM62.469 4.441c-4.366-.053-7.964 3.378-8.075 7.701-.136 4.997 3.53 8.323 8.369 8.323 2.026.029 4.001-.635 5.591-1.88l-.843-3.033c-1.547.907-3.449 1.44-4.748 1.44-2.216 0-3.836-1.152-4.432-2.88h9.828c.662-.004 1.216-.5 1.285-1.152.05-.369.073-.74.07-1.112 0-4.288-2.579-7.381-7.045-7.407zm-4.173 6.408c.572-1.766 2.243-2.954 4.115-2.926 1.794 0 3.306.976 3.658 2.926h-7.773zM46.014 4.441c-4.365-.053-7.963 3.378-8.074 7.701-.137 4.997 3.53 8.323 8.368 8.323 2.027.029 4.001-.635 5.591-1.88l-.843-3.033c-1.547.907-3.448 1.44-4.748 1.44-2.216 0-3.835-1.152-4.431-2.88h9.828c.662-.004 1.215-.5 1.285-1.152.049-.369.072-.74.07-1.112 0-4.288-2.58-7.381-7.046-7.407zm-4.172 6.408c.572-1.766 2.242-2.954 4.114-2.926 1.794 0 3.306.976 3.658 2.926h-7.772zM15.56 20.16c-.768.011-1.533-.076-2.278-.26 4.978-1.503 8.032-6.458 7.108-11.53C19.466 3.296 14.857-.29 9.663.023 4.468.337.332 4.449.036 9.595c-.297 5.147 3.341 9.698 8.466 10.594 1.122 1.653 3.71 2.975 7.057 2.975 1.54.025 3.064-.323 4.437-1.014l-.805-2.9c-1.124.575-2.367.887-3.632.91zM3.416 10.166c0-3.745 3.065-6.782 6.847-6.782 3.782 0 6.848 3.037 6.848 6.782 0 3.746-3.066 6.783-6.848 6.783-3.781-.002-6.846-3.037-6.847-6.783z" transform="translate(-974 -975) translate(974 975) translate(56 15)"/>
                </g>
            </g>
        </g>
    </g>
</svg>
